HIERARCHY
ROOT Hips
{
  OFFSET 89.7758 99.7743 68.2107
  CHANNELS 6 Xposition Yposition Zposition Zrotation Xrotation Yrotation
  JOINT ToSpine
  {
    OFFSET -2.69724 7.43032 -0.144315
    CHANNELS 3 Zrotation Xrotation Yrotation
    JOINT Spine
    {
      OFFSET -0.0310711 10.7595 1.96963
      CHANNELS 3 Zrotation Xrotation Yrotation
      JOINT Spine1
      {
        OFFSET 13.1342 3.43533 0.764692
        CHANNELS 3 Zrotation Xrotation Yrotation
        JOINT Neck
        {
          OFFSET 29.8703 7.82586 -0.130764
          CHANNELS 3 Zrotation Xrotation Yrotation
          JOINT Head
          {
            OFFSET 9.52751 0.295786 -0.907742
            CHANNELS 3 Zrotation Xrotation Yrotation
            End Site
            {
              OFFSET 16.4037 0.713936 2.7358
            }
          }
        }
        JOINT LeftShoulder
        {
          OFFSET 27.5574 4.95586 2.47156
          CHANNELS 3 Zrotation Xrotation Yrotation
          JOINT LeftArm
          {
            OFFSET 1.20734 -0.998971 20.1238
            CHANNELS 3 Zrotation Xrotation Yrotation
            JOINT LeftForeArm
            {
              OFFSET 26.8049 -0.0536703 -0.155908
              CHANNELS 3 Zrotation Xrotation Yrotation
              JOINT LeftHand
              {
                OFFSET 26.6817 0 0.320147
                CHANNELS 3 Zrotation Xrotation Yrotation
                End Site
                {
                  OFFSET 18.6119 0 0.382219
                }
              }
            }
          }
        }
        JOINT RightShoulder
        {
          OFFSET 27.5927 4.71444 -2.65209
          CHANNELS 3 Zrotation Xrotation Yrotation
          JOINT RightArm
          {
            OFFSET 2.83739 -1.17114 -18.7564
            CHANNELS 3 Zrotation Xrotation Yrotation
            JOINT RightForeArm
            {
              OFFSET 28.839 -0.0548439 1.22491
              CHANNELS 3 Zrotation Xrotation Yrotation
              JOINT RightHand
              {
                OFFSET 26.5114 0 -0.101894
                CHANNELS 3 Zrotation Xrotation Yrotation
                End Site
                {
                  OFFSET 18.2168 0 0
                }
              }
            }
          }
        }
      }
    }
  }
  JOINT LeftUpLeg
  {
    OFFSET -4.76168 -1.9167 -10.2353
    CHANNELS 3 Zrotation Xrotation Yrotation
    JOINT LeftLeg
    {
      OFFSET 2.55951 -42.0585 -8.02213
      CHANNELS 3 Zrotation Xrotation Yrotation
      JOINT LeftFoot
      {
        OFFSET 3.16357 -42.5282 -3.95426
        CHANNELS 3 Zrotation Xrotation Yrotation
        JOINT LeftToeBase
        {
          OFFSET 0.346054 -6.02161 12.8035
          CHANNELS 3 Zrotation Xrotation Yrotation
          End Site
          {
            OFFSET 0.134235 -1.35082 5.13018
          }
        }
      }
    }
  }
  JOINT RightUpLeg
  {
    OFFSET -4.94151 -1.41743 10.6446
    CHANNELS 3 Zrotation Xrotation Yrotation
    JOINT RightLeg
    {
      OFFSET -2.56294 -42.0364 -7.94377
      CHANNELS 3 Zrotation Xrotation Yrotation
      JOINT RightFoot
      {
        OFFSET -3.0952 -42.555 -4.02241
        CHANNELS 3 Zrotation Xrotation Yrotation
        JOINT RightToeBase
        {
          OFFSET -0.0828122 -6.13587 12.8035
          CHANNELS 3 Zrotation Xrotation Yrotation
          End Site
          {
            OFFSET -0.131328 -1.35082 5.13018
          }
        }
      }
    }
  }
}
MOTION
Frames:	17
Frame Time:	0.0333333
88.2367 98.0815 66.892 51.0809 8.07522 68.8702 -70.1915 0 88.8779 141.341 73.8252 -58.1343 -16.1895 24.7178 18.3966 -139.808 36.2695 124.218 -165.465 82.9936 -167.539 1.22519 -8.82259 -22.1343 -69.4545 45.7343 -88.2773 21.3049 1.00385 -86.9952 0.420957 0.000574779 0.358661 -2.17984 7.18814 44.5761 -81.794 -28.5921 65.0642 -35.2076 5.17693 82.4574 0.58676 0.000330762 0.0646651 11.4298 35.7962 72.9469 -2.15105 47.7155 2.96071 7.68851 -18.3478 -1.30432 -0.383511 -0.217841 2.43824 -58.6717 -26.7697 89.2359 10.1674 77.4412 -14.6048 -14.2615 -22.7327 0.91893 0.066401 -26.2777 -43.1343 
87.7165 97.7071 66.036 53.5389 9.07048 64.359 -70.1915 0 88.8779 124.488 73.5085 -44.1912 -12.3438 20.521 19.6786 -132.926 30.2675 124.476 -169.41 79.9553 -161.414 0.945655 -10.8358 -23.6858 -61.1444 43.7071 -104.196 22.6072 -0.131508 -88.6239 0.420957 0.000574779 0.358661 -1.96654 6.01878 47.0584 -88.4172 -26.2543 56.0554 -26.5155 2.37606 84.9292 0.58676 0.000330762 0.0646651 6.10618 37.3162 77.565 -2.30296 49.4869 3.50854 7.17514 -20.4607 -1.35583 -0.536016 -0.352807 3.53373 -47.1097 -26.0443 91.7242 132.495 85.6491 -139.186 -13.3021 -23.4194 0.952317 0.828998 -23.9344 -40.1095 
87.1498 97.7244 65.2224 57.6062 9.73931 59.5156 -70.1915 0 88.8779 116.001 70.8521 -38.0716 -9.88686 16.5575 19.9839 -127.918 25.3587 126.159 -164.404 77.0288 -165.414 1.00464 -10.5493 -21.7627 -56.3804 40.4662 -117.997 24.5493 -0.0867965 -91.3546 0.420957 0.000574779 0.358661 -1.63991 5.0599 47.076 -92.4863 -22.9092 48.7602 -12.5452 0.429061 88.3031 0.58676 0.000330762 0.0646651 -1.02225 39.8706 82.819 -2.30038 49.8591 3.72465 7.10469 -20.892 -1.36676 0.0363751 -2.09607 5.14422 -36.9392 -22.6361 90.1241 164.233 74.5108 -169.532 -15.0768 -20.8079 0.987312 0.378238 -24.7785 -45.2133 
86.4966 97.9936 64.1678 62.5206 10.0214 52.9454 -70.1915 0 88.8779 114.77 67.3629 -39.0888 -9.55942 13.3808 19.2128 -124.429 22.7885 130.661 -164.765 74.7375 -164.136 1.08326 -9.74919 -17.5899 -55.7146 38.9923 -127.208 25.5282 -2.65483 -94.1368 0.420957 0.000574779 0.358661 -1.4178 4.76836 44.5609 -93.3365 -19.1314 44.1313 -2.47741 -0.221113 92.6748 0.58676 0.000330762 0.0646651 -12.048 41.3865 91.0925 -2.0474 48.9003 4.40008 6.59475 -20.9933 -1.40246 0.188235 -3.19402 7.59313 -29.2715 -19.6795 85.1879 167.872 68.6848 -173.904 -14.6268 -19.3058 1.09358 0.464016 -25.6564 -42.085 
86.5114 98.6415 62.6693 68.55 8.24436 44.8365 -70.1915 0 88.8779 112.865 66.3719 -38.2685 -9.21511 12.8371 17.2669 -120.488 22.0049 136.331 -170.133 73.6313 -156.998 1.11023 -8.93061 -14.3291 -55.9958 38.491 -132.923 24.3865 -3.50711 -96.9697 0.420957 0.000574779 0.358661 -1.26027 4.98736 40.3493 -93.8705 -14.3274 41.5522 3.67903 0.484494 96.6654 0.58676 0.000330762 0.0646651 -27.0396 41.9041 102.732 -1.49143 45.8614 6.2703 4.38522 -20.9194 -1.53014 0.0827196 -3.00629 7.59311 -25.4975 -14.34 78.6062 165.996 71.1334 -171.018 -12.0538 -15.9397 1.34615 1.37213 -23.1593 -32.4052 
86.9781 99.7545 60.4231 74.5905 4.51428 36.5652 -70.1915 0 88.8779 111.378 67.1118 -36.1746 -8.21144 14.4442 14.3048 -117.415 22.9291 141.65 -175.897 73.3355 -149.583 1.12036 -8.53022 -13.5855 -56.9035 37.9633 -135.878 23.4738 -4.46721 -99.4267 0.420957 0.000574779 0.358661 -1.05676 5.33902 34.7892 -94.8096 -10.0212 42.0601 6.40506 1.11879 99.4889 0.58676 0.000330762 0.0646651 -42.9762 38.3505 113.728 -0.564153 41.5076 10.4879 1.11698 -18.5191 -1.52762 0.767962 -2.87245 3.22274 -26.9418 -7.88274 73.6369 151.562 81.0176 -143.903 -5.68943 -4.10248 0.802011 0.954803 -25.098 -35.6932 
87.5249 100.782 57.854 78.6005 2.29682 29.9196 -70.1915 0 88.8779 111.406 66.8904 -35.1592 -7.16024 15.3378 11.412 -114.893 24.1456 145.436 179.607 73.4012 -143.169 1.09879 -8.85626 -12.9842 -57.0413 37.6623 -138.467 23.284 -5.19152 -101.122 0.420957 0.000574779 0.358661 -0.956381 6.14708 30.1669 -96.9713 -5.49031 45.1212 7.32306 1.44881 100.757 0.58676 0.000330762 0.0646651 -51.2061 32.0859 115.389 -0.0259341 42.0136 12.7509 -0.81588 -11.9212 -1.00873 2.42288 -5.85529 1.90385 -33.5267 -3.97933 67.3967 37.9478 82.2834 -15.1825 2.72951 6.48429 -0.803381 2.09364 -20.2861 -36.1094 
88.1039 101.353 56.0199 80.1304 1.00828 24.7469 -70.1915 0 88.8779 105.727 67.5216 -30.0201 -4.51999 15.7005 9.88844 -112.961 24.9095 145.96 178.448 74.229 -141.071 1.05759 -9.80893 -12.2185 -56.2906 35.8825 -141.867 21.9515 -4.99104 -101.422 0.420957 0.000574779 0.358661 -0.938341 6.62447 28.6403 -101.984 -0.246644 49.4848 9.55016 1.96841 101.197 0.58676 0.000330762 0.0646651 -50.4241 27.6845 110.04 -1.56494 50.3545 9.46912 -0.23675 -2.293 -0.269424 3.30832 -7.6538 1.8842 -41.0117 -1.35962 60.7812 11.7491 67.6907 18.1291 8.38143 10.8904 -2.5579 3.12719 -11.4402 -29.5229 
88.5718 101.362 54.5348 80.0641 -0.361616 19.0641 -70.1915 0 88.8779 97.1056 68.5121 -22.9982 -2.73351 16.2113 8.49196 -112.435 26.3639 145.964 175.228 75.4189 -138.931 1.01841 -11.033 -11.9089 -56.3058 33.6007 -144.672 21.6414 -4.56735 -100.593 0.420957 0.000574779 0.358661 -0.826682 5.76564 29.0854 -109.365 2.67406 54.8044 12.4962 2.84388 102.294 0.58676 0.000330762 0.0646651 -46.5803 22.9134 103.223 -4.95929 60.137 1.88825 0.595804 2.71205 0.0387986 1.20114 -3.35653 2.26879 -46.9438 0.756849 57.8203 6.1692 52.4869 23.4808 12.4187 15.1447 -4.27856 3.14566 -6.15925 -20.8211 
88.7321 100.661 52.5377 80.1015 -2.72553 12.7008 -70.1915 0 88.8779 93.8815 68.8082 -20.1392 -3.11094 17.031 6.11258 -114.059 29.1957 147.561 169.394 76.5863 -134.792 1.00339 -11.5947 -11.6936 -56.5623 32.0848 -147.066 20.9444 -4.17483 -100.019 0.420957 0.000574779 0.358661 -0.813598 4.92051 31.8413 -117.368 4.7206 62.0804 14.3549 3.73237 103.948 0.58676 0.000330762 0.0646651 -45.0725 19.0485 99.4939 -6.90153 65.0393 -2.01402 -0.212043 0.998269 0.00875779 0.585611 -2.68364 3.79427 -51.2299 2.61672 61.8682 4.05954 41.0888 21.4324 15.9618 14.8286 -5.02472 3.6323 -4.30945 -23.5859 
88.66 99.3104 50.1369 80.5525 -6.57852 6.90164 -70.1915 0 88.8779 92.7691 69.1732 -18.308 -2.56272 17.9038 4.54097 -119.664 33.4551 152.128 158.799 76.9812 -127.133 0.987173 -11.7433 -12.5003 -58.8009 31.4898 -148.429 19.8251 -3.72024 -99.451 0.420957 0.000574779 0.358661 -0.965932 4.91574 34.822 -124.979 4.00567 71.2316 15.609 4.37809 104.96 0.58676 0.000330762 0.0646651 -45.958 18.4757 98.5722 -6.65988 65.0665 0.418642 -1.05326 -1.0288 -0.0423576 2.35408 -6.79433 5.94324 -53.7224 2.98444 69.906 2.62135 36.4977 10.2068 7.20641 8.8871 -2.22524 1.99856 -9.21192 -13.8579 
88.4586 97.5977 47.6534 80.1355 -11.0049 2.15468 -70.1915 0 88.8779 92.1474 69.5152 -16.7514 -2.27438 18.3089 4.61196 -127.574 37.4765 157.596 151.218 77.8966 -125.011 0.936077 -12.0765 -14.8517 -62.2862 30.6289 -148.84 21.649 -3.52305 -98.0579 0.420957 0.000574779 0.358661 -1.1893 5.20435 37.9947 -130.004 2.2756 80.9762 15.4697 4.25652 104.693 0.58676 0.000330762 0.0646651 -47.193 20.0814 98.4859 -4.83567 62.149 3.88812 -1.31725 0.192105 0.0993679 1.88623 -6.35377 7.82397 -52.5121 2.79349 78.8547 1.97231 37.1805 2.98088 -0.20541 0.899633 0.290874 1.60572 -9.6119 -6.95749 
88.2443 95.7722 44.9757 78.1933 -15.6814 -1.04643 -70.1915 0 88.8779 91.5731 69.7 -14.2537 -2.56019 17.9631 6.20518 -133.85 39.9489 162.544 150.035 79.1249 -127.725 0.821198 -12.8265 -18.0727 -65.1599 29.7653 -148.221 21.4137 -3.13869 -97.2165 0.420957 0.000574779 0.358661 -1.52043 5.97216 40.0798 -132.804 0.327587 89.5856 16.242 3.80706 102.535 0.58676 0.000330762 0.0646651 -47.3683 22.9542 98.0462 -2.89245 58.4542 7.8701 -1.68437 1.83833 0.297765 0.281267 -3.32147 7.46784 -48.6775 1.17135 83.6954 2.60976 40.0567 7.23271 0.528536 -6.20218 0.541899 3.02985 -8.0557 -21.8049 
88.2335 94.1883 42.1282 76.4634 -20.4852 -3.30612 -70.1915 0 88.8779 91.2486 69.6677 -11.9505 -1.79469 17.3905 8.00031 -137.602 40.3462 166.048 150.989 78.9148 -129.645 0.709589 -13.5102 -19.5333 -67.5923 30.4585 -147.056 21.026 -2.97658 -96.9574 0.420957 0.000574779 0.358661 -1.8055 7.05386 40.0012 -134.131 -4.95211 94.1884 17.5891 2.96906 99.0103 0.58676 0.000330762 0.0646651 -48.7371 25.3182 97.7323 -1.97586 54.8254 8.76565 -0.810676 2.81275 0.246256 -0.295532 -2.77302 8.95791 -45.5823 -1.13174 83.1648 3.11291 41.9069 10.4953 -1.84324 -11.6464 1.12117 3.45448 -5.19772 -24.4466 
88.2119 92.4641 39.4554 75.1891 -24.6838 -5.95463 -70.1915 0 88.8779 93.7119 69.7275 -13.9255 -2.5759 17.2912 9.1017 -136.138 39.1636 164.08 158.152 78.854 -136.116 0.613579 -14.3753 -19.9256 -68.9587 30.0598 -146.857 22.9929 -2.97748 -96.2477 0.420957 0.000574779 0.358661 -2.15256 7.22405 44.1717 -134.084 -5.6179 101.305 16.7636 1.69004 95.2225 0.58676 0.000330762 0.0646651 -51.1521 25.6692 97.7603 -1.78663 51.4679 7.43208 -0.696845 5.55041 0.486802 2.28908 -7.4199 9.47925 -40.8978 -3.6994 85.324 3.81084 46.8644 11.1691 -5.22732 -13.6386 1.30923 3.33402 -8.63335 -25.814 
88.3453 90.7597 36.7951 73.8747 -28.3975 -8.30306 -70.1915 0 88.8779 99.0678 69.4848 -17.5458 -3.85579 17.7019 8.03527 -134.393 37.9685 161.566 164.925 78.7371 -141.899 0.442007 -15.4475 -21.1391 -70.2356 28.764 -146.412 23.0154 -2.83973 -95.9252 0.420957 0.000574779 0.358661 -2.46649 7.2365 48.2088 -134.316 -4.77062 106.887 15.8851 0.270124 91.0002 0.58676 0.000330762 0.0646651 -53.0147 24.8737 98.1559 -1.93901 50.0816 5.7839 -2.93306 3.01527 0.570331 2.45397 -8.04297 11.0232 -35.402 -4.21868 88.774 5.20751 52.8754 13.7183 -7.18775 -13.2475 1.28975 2.86479 -14.3938 -31.6579 
88.7543 89.379 33.9309 73.409 -30.7779 -9.10906 -70.1915 0 88.8779 102.663 68.61 -18.5615 -2.77494 17.6629 6.26733 -134.865 37.3428 161.068 167.797 78.37 -144.657 0.378054 -15.7984 -21.551 -71.1367 28.5022 -146.481 24.2438 -2.99222 -95.8842 0.420957 0.000574779 0.358661 -2.66781 7.97571 47.5319 -133.995 -7.19723 108.363 15.7949 -0.905326 86.3941 0.58676 0.000330762 0.0646651 -54.2905 24.0112 99.315 -2.04832 51.2791 5.76144 -6.72691 -2.32738 0.46379 4.41803 -11.1332 10.81 -32.4558 -5.75184 89.9775 5.96535 55.7484 15.5746 -6.14172 -13.6061 1.27945 3.04323 -13.857 -33.5502 
